<svg width="40" height="40" viewBox="0 0 40 40" fill="none" xmlns="http://www.w3.org/2000/svg">
<mask id="path-1-inside-1_357_975" fill="white">
<path fill-rule="evenodd" clip-rule="evenodd" d="M22.0734 34.0544C25.5071 30.1732 32 22.1384 32 16.8755C32 9.72058 27.2299 5 20 5C12.7701 5 8 9.72058 8 16.8755C8 22.1384 14.4929 30.1732 17.9266 34.0544C19.0423 35.3154 20.9577 35.3154 22.0734 34.0544ZM20 20C21.6569 20 23 18.6569 23 17C23 15.3431 21.6569 14 20 14C18.3431 14 17 15.3431 17 17C17 18.6569 18.3431 20 20 20Z"/>
</mask>
<path d="M22.0734 34.0544L20.5754 32.7292L22.0734 34.0544ZM17.9266 34.0544L19.4246 32.7292H19.4246L17.9266 34.0544ZM30 16.8755C30 17.8118 29.7026 19.0175 29.092 20.45C28.4902 21.8619 27.6361 23.375 26.6484 24.8917C24.6725 27.9258 22.2631 30.8216 20.5754 32.7292L23.5713 35.3796C25.3173 33.406 27.8712 30.3438 30.0003 27.0745C31.065 25.4395 32.0488 23.7145 32.7717 22.0184C33.4858 20.3429 34 18.5706 34 16.8755H30ZM20 7C23.1719 7 25.6382 8.02732 27.3044 9.67622C28.9687 11.3232 30 13.7535 30 16.8755H34C34 12.8425 32.6463 9.3351 30.118 6.83308C27.5917 4.33297 24.058 3 20 3V7ZM10 16.8755C10 13.7535 11.0313 11.3232 12.6956 9.67622C14.3618 8.02732 16.8281 7 20 7V3C15.942 3 12.4083 4.33297 9.88197 6.83308C7.35371 9.3351 6 12.8425 6 16.8755H10ZM19.4246 32.7292C17.7369 30.8216 15.3275 27.9258 13.3516 24.8917C12.3639 23.375 11.5098 21.8619 10.908 20.45C10.2974 19.0175 10 17.8118 10 16.8755H6C6 18.5706 6.51418 20.3429 7.22832 22.0184C7.95125 23.7145 8.93497 25.4395 9.99971 27.0745C12.1288 30.3438 14.6827 33.406 16.4287 35.3796L19.4246 32.7292ZM20.5754 32.7292C20.2558 33.0905 19.7442 33.0905 19.4246 32.7292L16.4287 35.3796C18.3403 37.5403 21.6597 37.5403 23.5713 35.3796L20.5754 32.7292ZM21 17C21 17.5523 20.5523 18 20 18V22C22.7614 22 25 19.7614 25 17H21ZM20 16C20.5523 16 21 16.4477 21 17H25C25 14.2386 22.7614 12 20 12V16ZM19 17C19 16.4477 19.4477 16 20 16V12C17.2386 12 15 14.2386 15 17H19ZM20 18C19.4477 18 19 17.5523 19 17H15C15 19.7614 17.2386 22 20 22V18Z" fill="#CBCBD7" mask="url(#path-1-inside-1_357_975)"/>
</svg>
