<svg width="24" height="28" viewBox="0 0 24 28" fill="none" xmlns="http://www.w3.org/2000/svg">
<path fill-rule="evenodd" clip-rule="evenodd" d="M16.0612 6.5C16.0612 8.96242 14.0339 11 11.4817 11C8.92945 11 6.90213 8.96242 6.90213 6.5C6.90213 4.03758 8.92945 2 11.4817 2C14.0339 2 16.0612 4.03758 16.0612 6.5ZM18.0612 6.5C18.0612 10.0899 15.1154 13 11.4817 13C7.84789 13 4.90213 10.0899 4.90213 6.5C4.90213 2.91015 7.84789 0 11.4817 0C15.1154 0 18.0612 2.91015 18.0612 6.5ZM11.9878 26H2.0196C2.29803 24.5642 2.9695 22.0651 4.46772 19.9254C5.97413 17.774 8.29687 16 11.9878 16C15.6787 16 18.0014 17.774 19.5079 19.9254C21.0061 22.0651 21.6775 24.5642 21.956 26H11.9878ZM11.9878 14C7.51397 14 4.62852 16.2089 2.82942 18.7782C1.05812 21.3079 0.322546 24.1984 0.034535 25.7326C-0.199221 26.9778 0.788313 28 1.95027 28H11.9878H22.0253C23.1873 28 24.1748 26.9779 23.941 25.7327C23.653 24.1984 22.9174 21.3079 21.1462 18.7783C19.3471 16.2089 16.4616 14 11.9878 14Z" fill="#D9D9D9"/>
</svg>
