<svg width="41" height="40" viewBox="0 0 41 40" fill="none" xmlns="http://www.w3.org/2000/svg">
<path fill-rule="evenodd" clip-rule="evenodd" d="M24.9502 19.1645L30.7337 15.2155C30.9166 12.2408 31.1868 9.35532 31.401 7.29372C27.7113 8.62507 21.5086 11.3421 17.3636 15.6028C15.2996 17.7243 13.3957 21.1475 11.8182 24.7131C10.4302 27.8506 9.36198 30.941 8.69995 33.0205H32.3794C31.6612 29.9765 30.5144 24.5658 30.5274 20.8989C30.531 19.8809 30.5587 18.8114 30.6035 17.7261L26.0723 20.82C25.9102 20.9334 25.7128 20.9999 25.5 20.9999C24.9477 20.9999 24.5 20.5522 24.5 19.9999C24.5 19.6507 24.6789 19.3434 24.9502 19.1645ZM15.9301 14.2081C11.2883 18.9794 7.85108 28.9811 6.56575 33.142C6.2743 34.0855 6.98433 35.0205 7.97185 35.0205H32.9817C33.9684 35.0205 34.6919 34.0842 34.4605 33.1251C33.7542 30.1978 32.5145 24.5362 32.5274 20.906C32.5446 16.0202 33.1331 9.86712 33.4812 6.6422C33.5953 5.58547 32.6232 4.75637 31.617 5.09873C28.0524 6.31155 20.7661 9.2372 15.9301 14.2081Z" fill="#CBCBD7"/>
</svg>
