<svg width="40" height="40" viewBox="0 0 40 40" fill="none" xmlns="http://www.w3.org/2000/svg">
<path fill-rule="evenodd" clip-rule="evenodd" d="M7 7H16V16H7L7 7ZM5 7C5 5.89543 5.89543 5 7 5H16C17.1046 5 18 5.89543 18 7V16C18 17.1046 17.1046 18 16 18H7C5.89543 18 5 17.1046 5 16V7ZM24 24H33V33H24V24ZM22 24C22 22.8954 22.8954 22 24 22H33C34.1046 22 35 22.8954 35 24V33C35 34.1046 34.1046 35 33 35H24C22.8954 35 22 34.1046 22 33V24ZM33 7H24V16H33V7ZM24 5C22.8954 5 22 5.89543 22 7V16C22 17.1046 22.8954 18 24 18H33C34.1046 18 35 17.1046 35 16V7C35 5.89543 34.1046 5 33 5H24ZM7 24H16V33H7L7 24ZM5 24C5 22.8954 5.89543 22 7 22H16C17.1046 22 18 22.8954 18 24V33C18 34.1046 17.1046 35 16 35H7C5.89543 35 5 34.1046 5 33V24Z" fill="#CBCBD7"/>
</svg>
