<svg width="40" height="40" viewBox="0 0 40 40" fill="none" xmlns="http://www.w3.org/2000/svg">
<path d="M16.2518 14.9144L12.1598 24.0423L27.7093 24.0423L24.4357 14.9144M16.2518 14.9144H24.4357M16.2518 14.9144V10.4356C16.2518 10.1595 16.4757 9.93561 16.7518 9.93561H17.8886M24.4357 14.9144V10.4356C24.4357 10.1595 24.2118 9.9356 23.9357 9.93561L22.7989 9.93561M17.8886 9.93561C17.8886 9.93561 17.8886 7.43818 18.2978 6.61637C18.707 5.79455 21.9806 5.79453 22.3897 6.61637C22.7989 7.4382 22.7989 9.93561 22.7989 9.93561M17.8886 9.93561H22.7989M20.3438 34C31.9177 34 31.1831 26.2191 30.8568 24.4134C30.8166 24.1905 30.6207 24.0423 30.3942 24.0423H9.50446C9.26331 24.0423 9.05873 24.2133 9.03643 24.4534C8.86211 26.331 8.85338 34 20.3438 34Z" stroke="#CBCBD7" stroke-width="2"/>
</svg>
