<svg width="235" height="124" viewBox="0 0 235 124" fill="none" xmlns="http://www.w3.org/2000/svg">
<path d="M81.3732 41.1199C79.2385 39.3701 11.4637 58.0367 1.85775 72.6201C-7.74824 87.2035 66.4306 99.4536 69.6326 102.954C90.4727 125.734 109.657 122.204 109.657 122.204C109.657 122.204 102.186 109.37 105.922 102.954C107.783 99.7556 148.614 90.3074 148.614 90.3074C148.614 90.3074 189.701 82.8257 191.307 83.7035C194.509 85.4534 234 113.454 234 107.62C234 101.787 215.855 70.2868 216.389 65.0367C216.923 59.7866 234 31.2031 234 23.6198C234 16.0365 193.442 60.9532 191.307 61.5367C189.172 62.1201 173.696 57.4533 173.696 57.4533C173.696 57.4533 171.562 41.1199 168.893 41.1199C166.225 41.1199 156.086 50.4532 153.951 51.0366C151.816 51.6201 119.263 43.4531 117.128 41.1199C114.994 38.7866 117.662 10.7864 111.258 2.03636C104.854 -6.71363 83.5079 42.8697 81.3732 41.1199Z" fill="#366FFF" stroke="#366FFF" stroke-width="2"/>
</svg>
