<svg width="122" height="107" viewBox="0 0 122 107" fill="none" xmlns="http://www.w3.org/2000/svg">
<path d="M10.5584 60C10.5584 60 11.0653 47.2654 15.5586 40.5C18.0806 36.7028 22.5584 31.5 22.5584 31.5C22.5584 31.5 24.0215 23.065 22.5584 18C20.9202 12.3286 14.0584 5.5 14.0584 5.5M16.5584 2C16.5584 2 37.1151 6.08861 45.0584 15.5C49.5642 20.8386 53.0584 31.5 53.0584 31.5C53.0584 31.5 75.2197 33.0538 88.5584 37.5C101.897 41.9462 120.558 54 120.558 54M2.0584 106.5C2.0584 106.5 1.2611 92.3416 5.5584 85C10.1353 77.1808 15.6289 74.3213 24.0584 71C29.9731 68.6696 33.7276 67.42 40.0584 68C42.0336 68.181 45.0584 68.8929 45.0584 68.8929M118.558 60C118.558 60 112.813 63.9845 108.059 65.5C103.207 67.0468 94.5584 67.5263 94.5584 67.5263M72.0584 62.5C72.0584 62.5 79.1615 62.1612 84.0586 63.5C88.1073 64.6068 94.5584 67.5263 94.5584 67.5263M94.5584 67.5263C94.5584 67.5263 92.3937 68.6247 90.0586 68.8929C81.872 69.8329 77.7918 70.654 69.5586 71C60.4425 71.3831 45.0584 68.8929 45.0584 68.8929M45.0584 68.8929C45.0584 68.8929 38.9156 77.4107 34.0584 82C27.2089 88.4717 14.0584 95.5 14.0584 95.5M31.0584 43.5C31.0584 43.5 28.6714 46.4566 28.5586 49C28.4654 51.101 30.5586 54.5 30.5586 54.5M37.0586 43.5C37.0586 43.5 34.9487 45.7371 35.5586 49C36.018 51.458 38.0584 54 38.0584 54M44.0586 42.5C44.0586 42.5 41.59 45.4225 42.0586 48C42.4079 49.9211 44.0586 52.5 44.0586 52.5" stroke="#366FFF" stroke-width="3"/>
</svg>
