<svg width="235" height="123" viewBox="0 0 235 123" fill="none" xmlns="http://www.w3.org/2000/svg">
<path d="M81.3732 40.9087C79.2385 39.1681 11.4637 57.7364 1.85775 72.243C-7.74824 86.7497 66.4306 98.9353 69.6326 102.417C90.4727 125.077 109.657 121.566 109.657 121.566C109.657 121.566 102.186 108.8 105.922 102.417C107.783 99.2358 148.614 89.8372 148.614 89.8372C148.614 89.8372 189.701 82.3949 191.307 83.2681C194.509 85.0088 234 112.862 234 107.059C234 101.256 215.855 69.9221 216.389 64.6996C216.923 59.4771 234 31.0441 234 23.5007C234 15.9574 193.442 60.6376 191.307 61.218C189.172 61.7984 173.696 57.1561 173.696 57.1561C173.696 57.1561 171.562 40.9087 168.893 40.9087C166.225 40.9087 156.086 50.1928 153.951 50.7732C151.816 51.3536 119.263 43.2297 117.128 40.9087C114.994 38.5877 117.662 10.7348 111.258 2.03091C104.854 -6.67302 83.5079 42.6493 81.3732 40.9087Z" fill="white" stroke="#366FFF" stroke-width="2"/>
</svg>
